 <svg
        width="1440"
        height="934"
        viewBox="0 0 1440 934"
        fill="none"
        xmlns="http://www.w3.org/2000/svg"
      >
        <mask
          id="mask0_16_4"
          style="mask-type:alpha"
          maskUnits="userSpaceOnUse"
          x="-73"
          y="-95"
          width="1591"
          height="946"
        >
          <path
            d="M706.5 573.5C1031.58 295.553 1303 385.5 1444.5 480.5L1518 -95L-73 -29.5554L-22.5 812.5C94 880 337.5 889 706.5 573.5Z"
            fill="#C4C4C4"
          />
        </mask>
        <g mask="url(#mask0_16_4)">
          <g clip-path="url(#clip0_16_4)" filter="url(#filter0_f_16_4)">
            <rect width="1440" height="1024" fill="white" />
            <path
              d="M1.5 154V3L449 -119L770.5 71L896.5 245L1.5 154Z"
              fill="#FC7FBB"
            />
            <path
              d="M1462 254.584V10.5853C1144.85 -107.578 523 -273.006 572.824 10.5853C622.647 294.176 1186.37 291.414 1462 254.584Z"
              fill="#00D4F1"
            />
            <path
              d="M-0.5 561V5C666.3 309 1236 236.333 1437.5 162V1020.5L1177.5 983.5L-0.5 561Z"
              fill="#847DFA"
            />
            <path
              d="M19 982L-34 501.5C31.9771 330.072 469.089 156.409 781 480.5C1077.4 788.471 1292.23 919.209 1462 982H19Z"
              fill="#F44E77"
            />
            <path
              d="M-470 1188.94V725.44C-404 582.107 -144.519 437.462 167.5 708.44C464 965.94 803.667 1136.44 973.5 1188.94H-470Z"
              fill="#16194F"
            />
          </g>
        </g>
        <defs>
          <filter
            id="filter0_f_16_4"
            x="-150"
            y="-150"
            width="1740"
            height="1324"
            filterUnits="userSpaceOnUse"
            color-interpolation-filters="sRGB"
          >
            <feFlood flood-opacity="0" result="BackgroundImageFix" />
            <feBlend
              mode="normal"
              in="SourceGraphic"
              in2="BackgroundImageFix"
              result="shape"
            />
            <feGaussianBlur
              stdDeviation="75"
              result="effect1_foregroundBlur_16_4"
            />
          </filter>
          <clipPath id="clip0_16_4">
            <rect width="1440" height="1024" fill="white" />
          </clipPath>
        </defs>
      </svg>