
<svg
        width="663"
        height="468"
        viewBox="0 0 663 468"
        fill="none"
        xmlns="http://www.w3.org/2000/svg"
      >
        <g filter="url(#filter0_d_18_70)">
          <rect
            x="100"
            y="50"
            width="463"
            height="268"
            rx="24"
            fill="#16194F"
          />
        </g>
        <mask
          id="mask0_18_70"
          style="mask-type:alpha"
          maskUnits="userSpaceOnUse"
          x="100"
          y="50"
          width="463"
          height="268"
        >
          <rect
            x="100"
            y="50"
            width="463"
            height="268"
            rx="24"
            fill="#16194F"
          />
        </mask>
        <g mask="url(#mask0_18_70)">
          <path
            d="M458.837 5.13461C478.761 -17.6842 514.239 -17.6842 534.163 5.13459L549.718 22.9488C559.05 33.6372 572.485 39.857 586.673 40.0579L609.609 40.3827C641.369 40.8324 664.665 70.3966 657.675 101.381L654.406 115.872C651.012 130.915 654.749 146.682 664.534 158.601L673.676 169.737C694.343 194.912 685.805 232.811 656.34 246.693L640.026 254.379C626.589 260.71 616.662 272.687 612.935 287.066L608.171 305.446C600.457 335.21 567.96 351.024 539.778 338.73L516.493 328.572C503.744 323.01 489.256 323.01 476.507 328.572L453.222 338.73C425.04 351.024 392.543 335.21 384.829 305.446L380.065 287.066C376.338 272.687 366.411 260.71 352.974 254.379L336.66 246.693C307.195 232.811 298.657 194.912 319.324 169.737L328.466 158.601C338.251 146.682 341.988 130.915 338.594 115.872L335.325 101.381C328.335 70.3965 351.631 40.8324 383.391 40.3827L406.327 40.0579C420.515 39.857 433.95 33.6372 443.282 22.9488L458.837 5.13461Z"
            fill="#9A94FF"
          />
          <path
            d="M193.857 -87.9956C213.827 -111.558 250.173 -111.558 270.143 -87.9956L278.659 -77.9481C287.994 -66.9334 301.636 -60.4921 316.073 -60.2815L328.722 -60.0969C360.344 -59.6356 383.6 -30.3002 376.835 0.593506L374.945 9.22516C371.725 23.9315 375.302 39.3062 384.684 51.0802L390.002 57.7536C409.965 82.8065 401.549 119.907 372.731 133.894L363.52 138.365C350.227 144.817 340.469 156.818 336.864 171.147L334.203 181.723C326.612 211.897 293.598 227.884 265.218 215.129L252.497 209.412C239.46 203.553 224.54 203.553 211.503 209.412L198.782 215.129C170.402 227.884 137.388 211.897 129.797 181.722L127.136 171.147C123.531 156.818 113.773 144.817 100.48 138.365L91.2693 133.894C62.4507 119.907 54.0354 82.8065 73.9984 57.7537L79.316 51.0802C88.698 39.3062 92.2754 23.9315 89.0549 9.22516L87.1647 0.593521C80.3995 -30.3002 103.656 -59.6356 135.278 -60.0969L147.927 -60.2815C162.364 -60.4921 176.006 -66.9334 185.341 -77.9482L193.857 -87.9956Z"
            fill="#CAC7FF"
          />
          <path
            d="M226.857 145.004C246.827 121.442 283.173 121.442 303.143 145.004L311.659 155.052C320.994 166.067 334.636 172.508 349.073 172.719L361.722 172.903C393.344 173.364 416.6 202.7 409.835 233.594L407.945 242.225C404.725 256.932 408.302 272.306 417.684 284.08L423.002 290.754C442.965 315.806 434.549 352.907 405.731 366.894L396.52 371.365C383.227 377.817 373.469 389.818 369.864 404.147L367.203 414.723C359.612 444.897 326.598 460.884 298.218 448.129L285.497 442.412C272.46 436.553 257.54 436.553 244.503 442.412L231.782 448.129C203.402 460.884 170.388 444.897 162.797 414.722L160.136 404.147C156.531 389.818 146.773 377.817 133.48 371.365L124.269 366.894C95.4507 352.907 87.0354 315.806 106.998 290.754L112.316 284.08C121.698 272.306 125.275 256.932 122.055 242.225L120.165 233.594C113.4 202.7 136.656 173.364 168.278 172.903L180.927 172.719C195.364 172.508 209.006 166.067 218.341 155.052L226.857 145.004Z"
            fill="#16194F"
          />
          <mask
            id="mask1_18_70"
            style="mask-type:alpha"
            maskUnits="userSpaceOnUse"
            x="63"
            y="-106"
            width="338"
            height="326"
          >
            <path
              d="M193.857 -87.9956C213.827 -111.558 250.173 -111.558 270.143 -87.9956L278.659 -77.9481C287.994 -66.9334 301.636 -60.4921 316.073 -60.2815L328.722 -60.0969C360.344 -59.6356 383.6 -30.3002 376.835 0.593506L374.945 9.22516C371.725 23.9315 375.302 39.3062 384.684 51.0802L390.002 57.7536C409.965 82.8065 401.549 119.907 372.731 133.894L363.52 138.365C350.227 144.817 340.469 156.818 336.864 171.147L334.203 181.723C326.612 211.897 293.598 227.884 265.218 215.129L252.497 209.412C239.46 203.553 224.54 203.553 211.503 209.412L198.782 215.129C170.402 227.884 137.388 211.897 129.797 181.722L127.136 171.147C123.531 156.818 113.773 144.817 100.48 138.365L91.2693 133.894C62.4507 119.907 54.0354 82.8065 73.9984 57.7537L79.316 51.0802C88.698 39.3062 92.2754 23.9315 89.0549 9.22516L87.1647 0.593521C80.3995 -30.3002 103.656 -59.6356 135.278 -60.0969L147.927 -60.2815C162.364 -60.4921 176.006 -66.9334 185.341 -77.9482L193.857 -87.9956Z"
              fill="#CAC7FF"
            />
          </mask>
          <g mask="url(#mask1_18_70)">
            <path
              d="M226.857 145.004C246.827 121.442 283.173 121.442 303.143 145.004L311.659 155.052C320.994 166.067 334.636 172.508 349.073 172.719L361.722 172.903C393.344 173.364 416.6 202.7 409.835 233.594L407.945 242.225C404.725 256.932 408.302 272.306 417.684 284.08L423.002 290.754C442.965 315.806 434.549 352.907 405.731 366.894L396.52 371.365C383.227 377.817 373.469 389.818 369.864 404.147L367.203 414.723C359.612 444.897 326.598 460.884 298.218 448.129L285.497 442.412C272.46 436.553 257.54 436.553 244.503 442.412L231.782 448.129C203.402 460.884 170.388 444.897 162.797 414.722L160.136 404.147C156.531 389.818 146.773 377.817 133.48 371.365L124.269 366.894C95.4507 352.907 87.0354 315.806 106.998 290.754L112.316 284.08C121.698 272.306 125.275 256.932 122.055 242.225L120.165 233.594C113.4 202.7 136.656 173.364 168.278 172.903L180.927 172.719C195.364 172.508 209.006 166.067 218.341 155.052L226.857 145.004Z"
              fill="#F44E77"
            />
          </g>
        </g>
        <path
          d="M141.371 110.523C141.371 109.859 141.137 109.352 140.668 109C140.199 108.641 139.355 108.266 138.137 107.875C136.918 107.477 135.953 107.086 135.242 106.703C133.305 105.656 132.336 104.246 132.336 102.473C132.336 101.551 132.594 100.73 133.109 100.012C133.633 99.2852 134.379 98.7188 135.348 98.3125C136.324 97.9062 137.418 97.7031 138.629 97.7031C139.848 97.7031 140.934 97.9258 141.887 98.3711C142.84 98.8086 143.578 99.4297 144.102 100.234C144.633 101.039 144.898 101.953 144.898 102.977H141.383C141.383 102.195 141.137 101.59 140.645 101.16C140.152 100.723 139.461 100.504 138.57 100.504C137.711 100.504 137.043 100.688 136.566 101.055C136.09 101.414 135.852 101.891 135.852 102.484C135.852 103.039 136.129 103.504 136.684 103.879C137.246 104.254 138.07 104.605 139.156 104.934C141.156 105.535 142.613 106.281 143.527 107.172C144.441 108.062 144.898 109.172 144.898 110.5C144.898 111.977 144.34 113.137 143.223 113.98C142.105 114.816 140.602 115.234 138.711 115.234C137.398 115.234 136.203 114.996 135.125 114.52C134.047 114.035 133.223 113.375 132.652 112.539C132.09 111.703 131.809 110.734 131.809 109.633H135.336C135.336 111.516 136.461 112.457 138.711 112.457C139.547 112.457 140.199 112.289 140.668 111.953C141.137 111.609 141.371 111.133 141.371 110.523ZM154.66 113.711C153.824 114.727 152.668 115.234 151.191 115.234C149.832 115.234 148.793 114.844 148.074 114.062C147.363 113.281 147 112.137 146.984 110.629V102.32H150.371V110.512C150.371 111.832 150.973 112.492 152.176 112.492C153.324 112.492 154.113 112.094 154.543 111.297V102.32H157.941V115H154.754L154.66 113.711ZM165.102 109.914L163.883 111.133V115H160.496V97H163.883V106.973L164.539 106.129L167.785 102.32H171.852L167.27 107.605L172.25 115H168.359L165.102 109.914ZM176.621 103.703C177.52 102.625 178.648 102.086 180.008 102.086C182.758 102.086 184.152 103.684 184.191 106.879V115H180.805V106.973C180.805 106.246 180.648 105.711 180.336 105.367C180.023 105.016 179.504 104.84 178.777 104.84C177.785 104.84 177.066 105.223 176.621 105.988V115H173.234V97H176.621V103.703ZM198.172 108.777C198.172 110.809 197.738 112.395 196.871 113.535C196.004 114.668 194.793 115.234 193.238 115.234C191.863 115.234 190.766 114.707 189.945 113.652L189.793 115H186.746V97H190.133V103.457C190.914 102.543 191.941 102.086 193.215 102.086C194.762 102.086 195.973 102.656 196.848 103.797C197.73 104.93 198.172 106.527 198.172 108.59V108.777ZM194.785 108.531C194.785 107.25 194.582 106.316 194.176 105.73C193.77 105.137 193.164 104.84 192.359 104.84C191.281 104.84 190.539 105.281 190.133 106.164V111.168C190.547 112.059 191.297 112.504 192.383 112.504C193.477 112.504 194.195 111.965 194.539 110.887C194.703 110.371 194.785 109.586 194.785 108.531ZM203.844 115H200.445V102.32H203.844V115ZM200.246 99.0391C200.246 98.5312 200.414 98.1133 200.75 97.7852C201.094 97.457 201.559 97.293 202.145 97.293C202.723 97.293 203.184 97.457 203.527 97.7852C203.871 98.1133 204.043 98.5312 204.043 99.0391C204.043 99.5547 203.867 99.9766 203.516 100.305C203.172 100.633 202.715 100.797 202.145 100.797C201.574 100.797 201.113 100.633 200.762 100.305C200.418 99.9766 200.246 99.5547 200.246 99.0391ZM213.77 105.496C213.309 105.434 212.902 105.402 212.551 105.402C211.27 105.402 210.43 105.836 210.031 106.703V115H206.645V102.32H209.844L209.938 103.832C210.617 102.668 211.559 102.086 212.762 102.086C213.137 102.086 213.488 102.137 213.816 102.238L213.77 105.496ZM226.203 97.9375L230.586 110.312L234.945 97.9375H239.562V115H236.035V110.336L236.387 102.285L231.781 115H229.367L224.773 102.297L225.125 110.336V115H221.609V97.9375H226.203ZM249.758 115C249.602 114.695 249.488 114.316 249.418 113.863C248.598 114.777 247.531 115.234 246.219 115.234C244.977 115.234 243.945 114.875 243.125 114.156C242.312 113.438 241.906 112.531 241.906 111.438C241.906 110.094 242.402 109.062 243.395 108.344C244.395 107.625 245.836 107.262 247.719 107.254H249.277V106.527C249.277 105.941 249.125 105.473 248.82 105.121C248.523 104.77 248.051 104.594 247.402 104.594C246.832 104.594 246.383 104.73 246.055 105.004C245.734 105.277 245.574 105.652 245.574 106.129H242.188C242.188 105.395 242.414 104.715 242.867 104.09C243.32 103.465 243.961 102.977 244.789 102.625C245.617 102.266 246.547 102.086 247.578 102.086C249.141 102.086 250.379 102.48 251.293 103.27C252.215 104.051 252.676 105.152 252.676 106.574V112.07C252.684 113.273 252.852 114.184 253.18 114.801V115H249.758ZM246.957 112.645C247.457 112.645 247.918 112.535 248.34 112.316C248.762 112.09 249.074 111.789 249.277 111.414V109.234H248.012C246.316 109.234 245.414 109.82 245.305 110.992L245.293 111.191C245.293 111.613 245.441 111.961 245.738 112.234C246.035 112.508 246.441 112.645 246.957 112.645ZM258.582 103.703C259.48 102.625 260.609 102.086 261.969 102.086C264.719 102.086 266.113 103.684 266.152 106.879V115H262.766V106.973C262.766 106.246 262.609 105.711 262.297 105.367C261.984 105.016 261.465 104.84 260.738 104.84C259.746 104.84 259.027 105.223 258.582 105.988V115H255.195V97H258.582V103.703ZM274.543 115.234C272.684 115.234 271.168 114.664 269.996 113.523C268.832 112.383 268.25 110.863 268.25 108.965V108.637C268.25 107.363 268.496 106.227 268.988 105.227C269.48 104.219 270.176 103.445 271.074 102.906C271.98 102.359 273.012 102.086 274.168 102.086C275.902 102.086 277.266 102.633 278.258 103.727C279.258 104.82 279.758 106.371 279.758 108.379V109.762H271.684C271.793 110.59 272.121 111.254 272.668 111.754C273.223 112.254 273.922 112.504 274.766 112.504C276.07 112.504 277.09 112.031 277.824 111.086L279.488 112.949C278.98 113.668 278.293 114.23 277.426 114.637C276.559 115.035 275.598 115.234 274.543 115.234ZM274.156 104.828C273.484 104.828 272.938 105.055 272.516 105.508C272.102 105.961 271.836 106.609 271.719 107.453H276.43V107.184C276.414 106.434 276.211 105.855 275.82 105.449C275.43 105.035 274.875 104.828 274.156 104.828ZM286.262 110.207L288.605 102.32H292.238L287.141 116.969L286.859 117.637C286.102 119.293 284.852 120.121 283.109 120.121C282.617 120.121 282.117 120.047 281.609 119.898V117.332L282.125 117.344C282.766 117.344 283.242 117.246 283.555 117.051C283.875 116.855 284.125 116.531 284.305 116.078L284.703 115.035L280.262 102.32H283.906L286.262 110.207Z"
          fill="white"
        />
        <path
          d="M144.281 266.473C144.281 267.301 144.074 268.035 143.66 268.676C143.246 269.316 142.676 269.828 141.949 270.211C142.777 270.609 143.434 271.16 143.918 271.863C144.402 272.559 144.645 273.379 144.645 274.324C144.645 275.84 144.129 277.039 143.098 277.922C142.066 278.797 140.664 279.234 138.891 279.234C137.117 279.234 135.711 278.793 134.672 277.91C133.633 277.027 133.113 275.832 133.113 274.324C133.113 273.379 133.355 272.555 133.84 271.852C134.324 271.148 134.977 270.602 135.797 270.211C135.07 269.828 134.5 269.316 134.086 268.676C133.68 268.035 133.477 267.301 133.477 266.473C133.477 265.02 133.961 263.863 134.93 263.004C135.898 262.137 137.215 261.703 138.879 261.703C140.535 261.703 141.848 262.133 142.816 262.992C143.793 263.844 144.281 265.004 144.281 266.473ZM141.246 274.078C141.246 273.336 141.031 272.742 140.602 272.297C140.172 271.852 139.594 271.629 138.867 271.629C138.148 271.629 137.574 271.852 137.145 272.297C136.715 272.734 136.5 273.328 136.5 274.078C136.5 274.805 136.711 275.391 137.133 275.836C137.555 276.281 138.141 276.504 138.891 276.504C139.625 276.504 140.199 276.289 140.613 275.859C141.035 275.43 141.246 274.836 141.246 274.078ZM140.895 266.637C140.895 265.973 140.719 265.441 140.367 265.043C140.016 264.637 139.52 264.434 138.879 264.434C138.246 264.434 137.754 264.629 137.402 265.02C137.051 265.41 136.875 265.949 136.875 266.637C136.875 267.316 137.051 267.863 137.402 268.277C137.754 268.691 138.25 268.898 138.891 268.898C139.531 268.898 140.023 268.691 140.367 268.277C140.719 267.863 140.895 267.316 140.895 266.637ZM155.168 279H151.781V265.945L147.738 267.199V264.445L154.805 261.914H155.168V279ZM172.418 279H160.723V276.68L166.242 270.797C167 269.969 167.559 269.246 167.918 268.629C168.285 268.012 168.469 267.426 168.469 266.871C168.469 266.113 168.277 265.52 167.895 265.09C167.512 264.652 166.965 264.434 166.254 264.434C165.488 264.434 164.883 264.699 164.438 265.23C164 265.754 163.781 266.445 163.781 267.305H160.383C160.383 266.266 160.629 265.316 161.121 264.457C161.621 263.598 162.324 262.926 163.23 262.441C164.137 261.949 165.164 261.703 166.312 261.703C168.07 261.703 169.434 262.125 170.402 262.969C171.379 263.812 171.867 265.004 171.867 266.543C171.867 267.387 171.648 268.246 171.211 269.121C170.773 269.996 170.023 271.016 168.961 272.18L165.082 276.27H172.418V279ZM184.523 272.578H186.457V275.309H184.523V279H181.137V275.309H174.141L173.988 273.176L181.102 261.938H184.523V272.578ZM177.363 272.578H181.137V266.555L180.914 266.941L177.363 272.578ZM197.098 267.727L193.418 266.684L194.109 264.562L197.754 266.027L197.52 261.938H199.816L199.582 266.109L203.133 264.668L203.824 266.812L200.074 267.855L202.535 270.973L200.672 272.297L198.539 268.875L196.43 272.18L194.566 270.914L197.098 267.727ZM207.973 267.727L204.293 266.684L204.984 264.562L208.629 266.027L208.395 261.938H210.691L210.457 266.109L214.008 264.668L214.699 266.812L210.949 267.855L213.41 270.973L211.547 272.297L209.414 268.875L207.305 272.18L205.441 270.914L207.973 267.727ZM218.848 267.727L215.168 266.684L215.859 264.562L219.504 266.027L219.27 261.938H221.566L221.332 266.109L224.883 264.668L225.574 266.812L221.824 267.855L224.285 270.973L222.422 272.297L220.289 268.875L218.18 272.18L216.316 270.914L218.848 267.727ZM229.723 267.727L226.043 266.684L226.734 264.562L230.379 266.027L230.145 261.938H232.441L232.207 266.109L235.758 264.668L236.449 266.812L232.699 267.855L235.16 270.973L233.297 272.297L231.164 268.875L229.055 272.18L227.191 270.914L229.723 267.727ZM246.574 267.727L242.895 266.684L243.586 264.562L247.23 266.027L246.996 261.938H249.293L249.059 266.109L252.609 264.668L253.301 266.812L249.551 267.855L252.012 270.973L250.148 272.297L248.016 268.875L245.906 272.18L244.043 270.914L246.574 267.727ZM257.449 267.727L253.77 266.684L254.461 264.562L258.105 266.027L257.871 261.938H260.168L259.934 266.109L263.484 264.668L264.176 266.812L260.426 267.855L262.887 270.973L261.023 272.297L258.891 268.875L256.781 272.18L254.918 270.914L257.449 267.727ZM268.324 267.727L264.645 266.684L265.336 264.562L268.98 266.027L268.746 261.938H271.043L270.809 266.109L274.359 264.668L275.051 266.812L271.301 267.855L273.762 270.973L271.898 272.297L269.766 268.875L267.656 272.18L265.793 270.914L268.324 267.727ZM279.199 267.727L275.52 266.684L276.211 264.562L279.855 266.027L279.621 261.938H281.918L281.684 266.109L285.234 264.668L285.926 266.812L282.176 267.855L284.637 270.973L282.773 272.297L280.641 268.875L278.531 272.18L276.668 270.914L279.199 267.727ZM304.91 279H293.215V276.68L298.734 270.797C299.492 269.969 300.051 269.246 300.41 268.629C300.777 268.012 300.961 267.426 300.961 266.871C300.961 266.113 300.77 265.52 300.387 265.09C300.004 264.652 299.457 264.434 298.746 264.434C297.98 264.434 297.375 264.699 296.93 265.23C296.492 265.754 296.273 266.445 296.273 267.305H292.875C292.875 266.266 293.121 265.316 293.613 264.457C294.113 263.598 294.816 262.926 295.723 262.441C296.629 261.949 297.656 261.703 298.805 261.703C300.562 261.703 301.926 262.125 302.895 262.969C303.871 263.812 304.359 265.004 304.359 266.543C304.359 267.387 304.141 268.246 303.703 269.121C303.266 269.996 302.516 271.016 301.453 272.18L297.574 276.27H304.91V279ZM318.48 271.945C318.48 274.305 317.992 276.109 317.016 277.359C316.039 278.609 314.609 279.234 312.727 279.234C310.867 279.234 309.445 278.621 308.461 277.395C307.477 276.168 306.973 274.41 306.949 272.121V268.98C306.949 266.598 307.441 264.789 308.426 263.555C309.418 262.32 310.844 261.703 312.703 261.703C314.562 261.703 315.984 262.316 316.969 263.543C317.953 264.762 318.457 266.516 318.48 268.805V271.945ZM315.094 268.5C315.094 267.086 314.898 266.059 314.508 265.418C314.125 264.77 313.523 264.445 312.703 264.445C311.906 264.445 311.316 264.754 310.934 265.371C310.559 265.98 310.359 266.938 310.336 268.242V272.391C310.336 273.781 310.523 274.816 310.898 275.496C311.281 276.168 311.891 276.504 312.727 276.504C313.555 276.504 314.152 276.18 314.52 275.531C314.887 274.883 315.078 273.891 315.094 272.555V268.5ZM332.473 279H320.777V276.68L326.297 270.797C327.055 269.969 327.613 269.246 327.973 268.629C328.34 268.012 328.523 267.426 328.523 266.871C328.523 266.113 328.332 265.52 327.949 265.09C327.566 264.652 327.02 264.434 326.309 264.434C325.543 264.434 324.938 264.699 324.492 265.23C324.055 265.754 323.836 266.445 323.836 267.305H320.438C320.438 266.266 320.684 265.316 321.176 264.457C321.676 263.598 322.379 262.926 323.285 262.441C324.191 261.949 325.219 261.703 326.367 261.703C328.125 261.703 329.488 262.125 330.457 262.969C331.434 263.812 331.922 265.004 331.922 266.543C331.922 267.387 331.703 268.246 331.266 269.121C330.828 269.996 330.078 271.016 329.016 272.18L325.137 276.27H332.473V279ZM342.785 279H339.398V265.945L335.355 267.199V264.445L342.422 261.914H342.785V279Z"
          fill="white"
        />
        <defs>
          <filter
            id="filter0_d_18_70"
            x="0"
            y="0"
            width="663"
            height="468"
            filterUnits="userSpaceOnUse"
            color-interpolation-filters="sRGB"
          >
            <feFlood flood-opacity="0" result="BackgroundImageFix" />
            <feColorMatrix
              in="SourceAlpha"
              type="matrix"
              values="0 0 0 0 0 0 0 0 0 0 0 0 0 0 0 0 0 0 127 0"
              result="hardAlpha"
            />
            <feOffset dy="50" />
            <feGaussianBlur stdDeviation="50" />
            <feComposite in2="hardAlpha" operator="out" />
            <feColorMatrix
              type="matrix"
              values="0 0 0 0 0.0862745 0 0 0 0 0.0980392 0 0 0 0 0.309804 0 0 0 0.2 0"
            />
            <feBlend
              mode="normal"
              in2="BackgroundImageFix"
              result="effect1_dropShadow_18_70"
            />
            <feBlend
              mode="normal"
              in="SourceGraphic"
              in2="effect1_dropShadow_18_70"
              result="shape"
            />
          </filter>
        </defs>
      </svg>