<svg
            width="350"
            height="173"
            viewBox="0 0 350 173"
            fill="none"
            xmlns="http://www.w3.org/2000/svg"
          >
            <path
              d="M64.6338 159.3H61.8027V167H59.8984V159.3H57.1055V157.758H64.6338V159.3ZM72.7207 157.758V163.845C72.7207 164.857 72.4033 165.656 71.7686 166.245C71.138 166.833 70.2747 167.127 69.1787 167.127C68.0996 167.127 67.2427 166.841 66.6079 166.27C65.9731 165.699 65.6494 164.914 65.6367 163.915V157.758H67.541V163.858C67.541 164.463 67.6849 164.905 67.9727 165.185C68.2646 165.46 68.6667 165.597 69.1787 165.597C70.2493 165.597 70.7931 165.034 70.8101 163.909V157.758H72.7207ZM79.8428 162.995H76.1865V165.47H80.4775V167H74.2822V157.758H80.4648V159.3H76.1865V161.503H79.8428V162.995Z"
              fill="#6A6D9E"
            />
            <rect
              x="52.7568"
              y="15"
              width="14.3311"
              height="126"
              rx="7.16554"
              fill="#554DDE"
            />
            <rect
              x="71.1826"
              y="60"
              width="14.3311"
              height="81"
              rx="7.16554"
              fill="#F44E77"
            />
            <path
              d="M115.584 164.334L116.829 157.758H118.727L116.676 167H114.759L113.255 160.817L111.75 167H109.833L107.783 157.758H109.681L110.932 164.321L112.455 157.758H114.067L115.584 164.334ZM125.322 162.995H121.666V165.47H125.957V167H119.761V157.758H125.944V159.3H121.666V161.503H125.322V162.995ZM127.074 167V157.758H129.917C130.73 157.758 131.456 157.942 132.095 158.31C132.738 158.674 133.239 159.194 133.599 159.872C133.959 160.544 134.139 161.31 134.139 162.169V162.595C134.139 163.454 133.961 164.218 133.605 164.886C133.254 165.555 132.757 166.073 132.114 166.441C131.471 166.81 130.745 166.996 129.937 167H127.074ZM128.978 159.3V165.47H129.898C130.643 165.47 131.212 165.227 131.606 164.74C132 164.254 132.201 163.557 132.209 162.652V162.163C132.209 161.224 132.014 160.513 131.625 160.03C131.236 159.544 130.667 159.3 129.917 159.3H128.978Z"
              fill="#6A6D9E"
            />
            <rect
              x="105.514"
              y="71"
              width="14.3311"
              height="70"
              rx="7.16554"
              fill="#554DDE"
            />
            <rect
              x="123.939"
              y="48"
              width="14.3311"
              height="93"
              rx="7.16554"
              fill="#F44E77"
            />
            <path
              d="M169.124 159.3H166.292V167H164.388V159.3H161.595V157.758H169.124V159.3ZM177.737 167H175.833V163.039H172.12V167H170.215V157.758H172.12V161.503H175.833V157.758H177.737V167ZM186.402 157.758V163.845C186.402 164.857 186.084 165.656 185.45 166.245C184.819 166.833 183.956 167.127 182.86 167.127C181.781 167.127 180.924 166.841 180.289 166.27C179.654 165.699 179.331 164.914 179.318 163.915V157.758H181.222V163.858C181.222 164.463 181.366 164.905 181.654 165.185C181.946 165.46 182.348 165.597 182.86 165.597C183.931 165.597 184.474 165.034 184.491 163.909V157.758H186.402Z"
              fill="#6A6D9E"
            />
            <rect
              x="158.271"
              width="14.3311"
              height="141"
              rx="7.16554"
              fill="#554DDE"
            />
            <rect
              x="176.696"
              y="84"
              width="14.3311"
              height="57"
              rx="7.16554"
              fill="#F44E77"
            />
            <path
              d="M223.555 163.223H219.899V167H217.995V157.758H224.012V159.3H219.899V161.687H223.555V163.223ZM228.538 163.617H227.021V167H225.117V157.758H228.551C229.643 157.758 230.485 158.001 231.077 158.488C231.67 158.974 231.966 159.662 231.966 160.551C231.966 161.181 231.828 161.708 231.553 162.131C231.282 162.55 230.87 162.885 230.315 163.134L232.315 166.911V167H230.271L228.538 163.617ZM227.021 162.074H228.557C229.035 162.074 229.406 161.954 229.668 161.712C229.93 161.467 230.062 161.131 230.062 160.703C230.062 160.267 229.937 159.924 229.687 159.675C229.442 159.425 229.063 159.3 228.551 159.3H227.021V162.074ZM235.444 167H233.54V157.758H235.444V167Z"
              fill="#6A6D9E"
            />
            <rect
              x="211.027"
              y="21"
              width="14.3311"
              height="120"
              rx="7.16554"
              fill="#554DDE"
            />
            <rect
              x="229.453"
              y="60"
              width="14.3311"
              height="81"
              rx="7.16554"
              fill="#F44E77"
            />
            <path
              d="M272.473 163.575C272.473 163.215 272.346 162.94 272.092 162.75C271.838 162.555 271.381 162.352 270.721 162.141C270.061 161.925 269.538 161.713 269.153 161.506C268.103 160.939 267.579 160.175 267.579 159.214C267.579 158.715 267.718 158.271 267.998 157.881C268.281 157.488 268.685 157.181 269.21 156.961C269.739 156.741 270.331 156.631 270.987 156.631C271.647 156.631 272.236 156.751 272.752 156.993C273.268 157.23 273.668 157.566 273.952 158.002C274.239 158.438 274.383 158.933 274.383 159.487H272.479C272.479 159.064 272.346 158.736 272.079 158.503C271.812 158.266 271.438 158.148 270.956 158.148C270.49 158.148 270.128 158.247 269.87 158.446C269.612 158.641 269.483 158.899 269.483 159.221C269.483 159.521 269.633 159.773 269.934 159.976C270.238 160.179 270.685 160.37 271.273 160.547C272.356 160.873 273.146 161.277 273.641 161.76C274.136 162.242 274.383 162.843 274.383 163.562C274.383 164.362 274.081 164.991 273.476 165.448C272.87 165.901 272.056 166.127 271.032 166.127C270.321 166.127 269.673 165.998 269.089 165.74C268.505 165.477 268.059 165.12 267.75 164.667C267.445 164.214 267.293 163.689 267.293 163.093H269.204C269.204 164.113 269.813 164.623 271.032 164.623C271.485 164.623 271.838 164.532 272.092 164.35C272.346 164.163 272.473 163.905 272.473 163.575ZM280.896 164.096H277.557L276.922 166H274.897L278.338 156.758H280.103L283.562 166H281.537L280.896 164.096ZM278.071 162.553H280.382L279.22 159.094L278.071 162.553ZM290.621 158.3H287.79V166H285.885V158.3H283.092V156.758H290.621V158.3Z"
              fill="#6A6D9E"
            />
            <rect
              x="263.784"
              y="15"
              width="14.3311"
              height="126"
              rx="7.16554"
              fill="#554DDE"
            />
            <rect
              x="282.21"
              y="60"
              width="14.3311"
              height="81"
              rx="7.16554"
              fill="#F44E77"
            />
            <rect
              x="316.541"
              y="15"
              width="14.3311"
              height="126"
              rx="7.16554"
              fill="#554DDE"
            />
            <rect
              x="334.967"
              y="60"
              width="14.3311"
              height="81"
              rx="7.16554"
              fill="#F44E77"
            />
            <path
              d="M325.229 164.575C325.229 164.215 325.103 163.94 324.849 163.75C324.595 163.555 324.138 163.352 323.478 163.141C322.817 162.925 322.295 162.713 321.91 162.506C320.86 161.939 320.335 161.175 320.335 160.214C320.335 159.715 320.475 159.271 320.754 158.881C321.038 158.488 321.442 158.181 321.967 157.961C322.496 157.741 323.088 157.631 323.744 157.631C324.404 157.631 324.993 157.751 325.509 157.993C326.025 158.23 326.425 158.566 326.708 159.002C326.996 159.438 327.14 159.933 327.14 160.487H325.236C325.236 160.064 325.103 159.736 324.836 159.503C324.569 159.266 324.195 159.148 323.712 159.148C323.247 159.148 322.885 159.247 322.627 159.446C322.369 159.641 322.24 159.899 322.24 160.221C322.24 160.521 322.39 160.773 322.69 160.976C322.995 161.179 323.442 161.37 324.03 161.547C325.113 161.873 325.902 162.277 326.397 162.76C326.893 163.242 327.14 163.843 327.14 164.562C327.14 165.362 326.838 165.991 326.232 166.448C325.627 166.901 324.813 167.127 323.789 167.127C323.078 167.127 322.43 166.998 321.846 166.74C321.262 166.477 320.816 166.12 320.507 165.667C320.202 165.214 320.05 164.689 320.05 164.093H321.96C321.96 165.113 322.57 165.623 323.789 165.623C324.241 165.623 324.595 165.532 324.849 165.35C325.103 165.163 325.229 164.905 325.229 164.575ZM335.43 157.758V163.845C335.43 164.857 335.113 165.656 334.478 166.245C333.847 166.833 332.984 167.127 331.888 167.127C330.809 167.127 329.952 166.841 329.317 166.27C328.683 165.699 328.359 164.914 328.346 163.915V157.758H330.25V163.858C330.25 164.463 330.394 164.905 330.682 165.185C330.974 165.46 331.376 165.597 331.888 165.597C332.959 165.597 333.503 165.034 333.52 163.909V157.758H335.43ZM344.507 167H342.603L338.896 160.919V167H336.992V157.758H338.896L342.609 163.852V157.758H344.507V167Z"
              fill="#6A6D9E"
            />
            <path
              d="M4.33691 157.758L6.71094 164.461L9.07227 157.758H11.5732V167H9.6626V164.474L9.85303 160.113L7.3584 167H6.05078L3.5625 160.119L3.75293 164.474V167H1.84863V157.758H4.33691ZM20.8281 162.588C20.8281 163.498 20.6673 164.296 20.3457 164.981C20.0241 165.667 19.5628 166.196 18.9619 166.568C18.3652 166.941 17.6797 167.127 16.9053 167.127C16.1393 167.127 15.4559 166.943 14.855 166.575C14.2541 166.207 13.7886 165.682 13.4585 165C13.1284 164.315 12.9613 163.528 12.957 162.639V162.182C12.957 161.272 13.12 160.472 13.4458 159.783C13.7759 159.089 14.2393 158.558 14.8359 158.189C15.4368 157.817 16.1224 157.631 16.8926 157.631C17.6628 157.631 18.3462 157.817 18.9429 158.189C19.5438 158.558 20.0072 159.089 20.333 159.783C20.6631 160.472 20.8281 161.27 20.8281 162.176V162.588ZM18.8984 162.169C18.8984 161.2 18.7249 160.464 18.3779 159.96C18.0309 159.457 17.5358 159.205 16.8926 159.205C16.2536 159.205 15.7606 159.455 15.4136 159.954C15.0666 160.449 14.891 161.177 14.8867 162.138V162.588C14.8867 163.532 15.0602 164.264 15.4072 164.785C15.7542 165.305 16.2536 165.565 16.9053 165.565C17.5443 165.565 18.0352 165.316 18.3779 164.816C18.7207 164.313 18.8942 163.581 18.8984 162.62V162.169ZM29.7275 167H27.8232L24.1162 160.919V167H22.2119V157.758H24.1162L27.8296 163.852V157.758H29.7275V167Z"
              fill="#6A6D9E"
            />
            <rect
              y="7"
              width="14.3311"
              height="134"
              rx="7.16554"
              fill="#554DDE"
            />
            <rect
              x="18.4258"
              y="71"
              width="14.3311"
              height="70"
              rx="7.16554"
              fill="#F44E77"
            />
          </svg>